<svg xmlns="http://www.w3.org/2000/svg" viewBox="0 0 560 610" width="560" height="610">
  <defs>
    <linearGradient id="ogH" x1="0%" y1="0%" x2="100%" y2="0%">
      <stop offset="0%"   stop-color="#b83a00"/>
      <stop offset="28%"  stop-color="#ff6000"/>
      <stop offset="62%"  stop-color="#ff5000"/>
      <stop offset="100%" stop-color="#a83200"/>
    </linearGradient>
    <linearGradient id="ogV" x1="0%" y1="0%" x2="0%" y2="100%">
      <stop offset="0%"   stop-color="#ff6e0e"/>
      <stop offset="42%"  stop-color="#ff5800"/>
      <stop offset="100%" stop-color="#b83800"/>
    </linearGradient>
    <linearGradient id="ogDR" x1="0%" y1="100%" x2="100%" y2="0%">
      <stop offset="0%"   stop-color="#b63600"/>
      <stop offset="48%"  stop-color="#ff5800"/>
      <stop offset="100%" stop-color="#ff6c0c"/>
    </linearGradient>
    <linearGradient id="ogDL" x1="100%" y1="100%" x2="0%" y2="0%">
      <stop offset="0%"   stop-color="#b63600"/>
      <stop offset="48%"  stop-color="#ff5200"/>
      <stop offset="100%" stop-color="#ff6808"/>
    </linearGradient>
    <!-- Cilindro: gradiente lateral 2D con luces y sombras -->
    <linearGradient id="cylG" x1="0%" y1="0%" x2="100%" y2="0%">
      <stop offset="0%"   stop-color="#050505"/>
      <stop offset="10%"  stop-color="#1e1e1e"/>
      <stop offset="28%"  stop-color="#383838"/>
      <stop offset="48%"  stop-color="#464646"/>
      <stop offset="68%"  stop-color="#2c2c2c"/>
      <stop offset="88%"  stop-color="#121212"/>
      <stop offset="100%" stop-color="#040404"/>
    </linearGradient>
    <radialGradient id="capG" cx="38%" cy="35%" r="62%">
      <stop offset="0%"   stop-color="#404040"/>
      <stop offset="55%"  stop-color="#1c1c1c"/>
      <stop offset="100%" stop-color="#080808"/>
    </radialGradient>
    <linearGradient id="nemaG" x1="0%" y1="0%" x2="100%" y2="100%">
      <stop offset="0%"   stop-color="#222"/>
      <stop offset="100%" stop-color="#060606"/>
    </linearGradient>
    <linearGradient id="wG1" x1="0%" y1="0%" x2="100%" y2="0%">
      <stop offset="0%"   stop-color="#585858"/>
      <stop offset="32%"  stop-color="#a8a8a8"/>
      <stop offset="60%"  stop-color="#cacaca"/>
      <stop offset="100%" stop-color="#545454"/>
    </linearGradient>
    <linearGradient id="wG2" x1="0%" y1="0%" x2="100%" y2="0%">
      <stop offset="0%"   stop-color="#727272"/>
      <stop offset="50%"  stop-color="#c0c0c0"/>
      <stop offset="100%" stop-color="#626262"/>
    </linearGradient>
    <filter id="sh">
      <feDropShadow dx="2" dy="3" stdDeviation="4" flood-color="#00000065"/>
    </filter>
    <filter id="shS">
      <feDropShadow dx="1" dy="2" stdDeviation="2.5" flood-color="#00000052"/>
    </filter>
  </defs>

  <!--
    TODOS LOS PUNTOS MEDIDOS de imagen 620×633 y escalados con factor 1.183:
    torso_top/cx: (178, 377)    cil: 142×135
    hombro(308,247) → codo(119,93)    
  -->

<g id="eslabon0">
    <!-- ══════════════════════════════════════════════
        CAPA 1 — BASE: plato fijo + rotativo + cilindro
        ══════════════════════════════════════════════ -->

    <!-- ══════════════════════════════════════════════
        BASE PRINCIPAL OSCURA (NIVEL INFERIOR)
        ══════════════════════════════════════════════ -->
    <g filter="url(#sh)">
      <!-- Riel ( aquí va el riel )  -->
      <rect x="-10" y="562" width="400" height="42" rx="2" fill="#2c2c2c"/>
      <rect x="-10" y="562" width="400" height="3" fill="#444"/>
      
      <!-- Panel gris claro empotrado Central (más ancho para separar los bloques) -> ancho 120, centrado en 178 -> x=118 -->
      <rect x="118" y="556" width="120" height="30" fill="#a0a4a8"/>
      <rect x="118" y="583" width="120" height="3" fill="#808488"/>

      <!-- Bloques verticales naranjas flanqueando lo gris (más largos y más separados) -->
      <!-- Bloque Izquierdo (Ancho 28, x=90) -->
      <rect x="90" y="556" width="28" height="34" rx="2" fill="#c44000"/>
      <rect x="90" y="586" width="28" height="4" rx="1" fill="#9e3000"/>
      <circle cx="104" cy="568" r="5" fill="#silver" fill-opacity="0.9" stroke="#777" stroke-width="1"/>
      <circle cx="104" cy="568" r="2" fill="#222"/>
      
      <!-- Bloque Derecho (Ancho 28, x=238) -->
      <rect x="238" y="556" width="28" height="34" rx="2" fill="#c44000"/>
      <rect x="238" y="586" width="28" height="4" rx="1" fill="#9e3000"/>
      <circle cx="252" cy="568" r="5" fill="#silver" fill-opacity="0.9" stroke="#777" stroke-width="1"/>
      <circle cx="252" cy="568" r="2" fill="#222"/>
    </g>

    <!-- ══════════════════════════════════════════════
        PATÍN DESLIZANTE (BASE NARANJA SUPERIOR)
        Centrado absoluto bajo el cilindro rotativo (Centro = 178)
        ══════════════════════════════════════════════ -->
    <g filter="url(#sh)">
      <!-- Cuerpo central del patín -->
      <rect x="43" y="534" width="270" height="28" rx="4" fill="#9e3000"/>
      <rect x="43" y="531" width="270" height="26" rx="4" fill="url(#ogH)"/>
      
      <!-- Reborde saliente grueso (frontal) con "hueco" de 44px en el medio (156 a 200) -->
      <rect x="43" y="546" width="113" height="15" rx="3" fill="#c44000"/>
      <rect x="43" y="550" width="113" height="7" rx="2" fill="#a03000"/>
      
      <rect x="200" y="546" width="113" height="15" rx="3" fill="#c44000"/>
      <rect x="200" y="550" width="113" height="7" rx="2" fill="#a03000"/>

      <!-- Orejas / Rectángulos naranjas laterales con ruedas grises -->
      <rect x="15" y="540" width="28" height="24" rx="3" fill="#c44000"/>
      <rect x="15" y="542" width="28" height="6" fill="#f06010" opacity="0.4"/>
      
      <rect x="313" y="540" width="28" height="24" rx="3" fill="#c44000"/>
      <rect x="313" y="542" width="28" height="6" fill="#f06010" opacity="0.4"/>
    </g>

    <!-- ESCUADRA / CLAMP METÁLICO NEGRO MÁS LARGA -->
    <g filter="url(#sh)">
      <!-- Clamp negro más largo hacia abajo (altura 55) -->
      <rect x="157" y="540" width="42" height="55" rx="4" fill="#1c1c1c"/>
      <rect x="158" y="541" width="40" height="4" rx="2" fill="#3a3a3a"/>
    </g>
    <!-- Tornillos superiores (en la naranja) -->
    <circle cx="168" cy="548" r="3.2" fill="#silver" fill-opacity="0.9" stroke="#999" stroke-width="0.8"/>
    <circle cx="168" cy="548" r="1.5" fill="#111"/>
    <circle cx="188" cy="548" r="3.2" fill="#silver" fill-opacity="0.9" stroke="#999" stroke-width="0.8"/>
    <circle cx="188" cy="548" r="1.5" fill="#111"/>
    
    <!-- Tornillo inferior desplazado hacia abajo en la placa más larga -->
    <circle cx="178" cy="582" r="5" fill="#silver" fill-opacity="0.9" stroke="#777" stroke-width="1.2"/>
    <circle cx="178" cy="582" r="2.5" fill="#222"/>
    <!-- Corte central/nervadura clásica en la parte inferior del clamp -->
    <rect x="177" y="589" width="2" height="6" fill="#111"/>

    <!-- Tornillería pesada negra con anillos plateados en los rebordes  -->
    <circle cx="65" cy="554" r="6" fill="#141414"/>
    <circle cx="65" cy="554" r="4.5" fill="#silver" fill-opacity="0.8" stroke="#eeddcc" stroke-width="0.8"/>
    <circle cx="65" cy="554" r="2" fill="#111"/>
    <circle cx="95" cy="554" r="6" fill="#141414"/>
    <circle cx="95" cy="554" r="4.5" fill="#silver" fill-opacity="0.8" stroke="#eeddcc" stroke-width="0.8"/>
    <circle cx="95" cy="554" r="2" fill="#111"/>
    
    <circle cx="261" cy="554" r="6" fill="#141414"/>
    <circle cx="261" cy="554" r="4.5" fill="#silver" fill-opacity="0.8" stroke="#eeddcc" stroke-width="0.8"/>
    <circle cx="261" cy="554" r="2" fill="#111"/>
    <circle cx="291" cy="554" r="6" fill="#141414"/>
    <circle cx="291" cy="554" r="4.5" fill="#silver" fill-opacity="0.8" stroke="#eeddcc" stroke-width="0.8"/>
    <circle cx="291" cy="554" r="2" fill="#111"/>

    <!-- Tornillos GRANDES plateados en las orejas laterales naranjas -->
    <circle cx="29" cy="552" r="6.5" fill="#e0e0e0" filter="url(#shS)"/>
    <circle cx="29" cy="552" r="4" fill="#a0a0a0" stroke="#707070" stroke-width="1"/>
    <circle cx="29" cy="552" r="2" fill="#333"/>
    
    <circle cx="327" cy="552" r="6.5" fill="#e0e0e0" filter="url(#shS)"/>
    <circle cx="327" cy="552" r="4" fill="#a0a0a0" stroke="#707070" stroke-width="1"/>
    <circle cx="327" cy="552" r="2" fill="#333"/>

    <!-- PLATO ROTATIVO  x=50 y=512 w=256 h=43 -->
    <ellipse cx="178" cy="555" rx="130" ry="13" fill="#00000040"/>
    <rect x="50"  y="517" width="256" height="38" rx="6" fill="#982e00" filter="url(#sh)"/>
    <rect x="50"  y="512" width="256" height="38" rx="6" fill="url(#ogH)"/>
    <!-- Labio reborde inferior pronunciado -->
    <rect x="44"  y="541" width="268" height="14" rx="5" fill="#ae3c00"/>
    <rect x="44"  y="538" width="268" height="14" rx="5" fill="#c44400"/>
    <!-- Línea separación interior -->
    <line x1="50" y1="530" x2="306" y2="530" stroke="#7c2200" stroke-width="1.6"/>
    <!-- Tornillos perimetrales (10 tornillos) -->
    <circle cx=" 62" cy="522" r="3.5" fill="#7a2800" stroke="#ff5400" stroke-width="0.8"/>
    <circle cx=" 88" cy="515" r="3.5" fill="#7a2800" stroke="#ff5400" stroke-width="0.8"/>
    <circle cx="124" cy="512" r="3.5" fill="#7a2800" stroke="#ff5400" stroke-width="0.8"/>
    <circle cx="178" cy="511" r="3.5" fill="#7a2800" stroke="#ff5400" stroke-width="0.8"/>
    <circle cx="232" cy="512" r="3.5" fill="#7a2800" stroke="#ff5400" stroke-width="0.8"/>
    <circle cx="268" cy="515" r="3.5" fill="#7a2800" stroke="#ff5400" stroke-width="0.8"/>
    <circle cx="294" cy="522" r="3.5" fill="#7a2800" stroke="#ff5400" stroke-width="0.8"/>
    <circle cx=" 62" cy="540" r="3.5" fill="#7a2800" stroke="#ff5400" stroke-width="0.8"/>
    <circle cx="294" cy="540" r="3.5" fill="#7a2800" stroke="#ff5400" stroke-width="0.8"/>

    <!-- CILINDRO NEGRO — VISTA LATERAL = CUADRADO ANCHO -->
    <!-- Más ancho que la base naranja. Centro en 178. Ancho 180 -> x=88 -->
    
    <!-- Sombra sobre el plato -->
    <rect x="88" y="497" width="180" height="18" rx="2" fill="#00000038"/>
    
    <!-- FRANJA NARANJA EN EL PIE DEL CILINDRO (zona de acople al plato) -->
    <rect x="88" y="506" width="180" height="8" rx="3" fill="#c44000" filter="url(#sh)"/>
    <rect x="88" y="505" width="180" height="4" rx="3" fill="url(#ogH)"/>

    <!-- CUERPO CUADRADO NEGRO PRINCIPAL (el cilindro visto de lado) -->
    <rect x="88" y="370" width="180" height="136" rx="5" fill="url(#cylG)" filter="url(#sh)"/>
    <!-- Highlight especular izquierdo -->
    <rect x="88" y="370" width="22" height="136" rx="5" fill="#1c1c1c" opacity="0.85"/>
    <line x1="96" y1="378" x2="96" y2="480" stroke="#3c3c3c" stroke-width="1.5" opacity="0.6"/>
    <!-- Franja highlight central -->
    <rect x="148" y="370" width="44" height="136" fill="#505050" opacity="0.22"/>
    <!-- Franja oscura derecha -->
    <rect x="243" y="370" width="25" height="136" rx="5" fill="#0a0a0a" opacity="0.85"/>
      <!-- Tornillos naranjas del collarín pie -->
    <circle cx="108" cy="518" r="3" fill="#0a0a0a" stroke="#505050" stroke-width="0.8"/>
    <circle cx="148" cy="518" r="3" fill="#0a0a0a" stroke="#505050" stroke-width="0.8"/>
    <circle cx="208" cy="518" r="3" fill="#0a0a0a" stroke="#505050" stroke-width="0.8"/>
    <circle cx="248" cy="518" r="3" fill="#0a0a0a" stroke="#505050" stroke-width="0.8"/>
    

    <!-- Tapa superior plana (no elipse, cuadrada) -->
    <rect x="88" y="365" width="180" height="10" rx="3" fill="#3c3c3c"/>
    <rect x="88" y="362" width="180" height="10" rx="3" fill="#2a2a2a"/>
    
    <!-- UNIÓN CILINDRO-TORSO: Tuercas grises en la parte superior -->
    <circle cx="108" cy="372" r="4.5" fill="#b0b0b0" stroke="#777" stroke-width="1"/>
    <circle cx="108" cy="372" r="2" fill="#555"/>
    <circle cx="148" cy="372" r="4.5" fill="#b0b0b0" stroke="#777" stroke-width="1"/>
    <circle cx="148" cy="372" r="2" fill="#555"/>
    <circle cx="208" cy="372" r="4.5" fill="#b0b0b0" stroke="#777" stroke-width="1"/>
    <circle cx="208" cy="372" r="2" fill="#555"/>
    <circle cx="248" cy="372" r="4.5" fill="#b0b0b0" stroke="#777" stroke-width="1"/>
    <circle cx="248" cy="372" r="2" fill="#555"/>

    <!-- ══════════════════════════════════════════════
        MOTOR DE TRACCIÓN (DETRÁS PATÍN IZQUIERDA)
        ══════════════════════════════════════════════ -->
    <!-- Bloque / Caja de engranajes principal -->
    <rect x="12" y="478" width="56" height="42" rx="3" fill="#141414" filter="url(#sh)"/>
    <!-- Cilindro de motor asomando horizontalmente -->
    <rect x="-8" y="488" width="24" height="22" rx="2" fill="#202020"/>
    <rect x="-6" y="490" width="18" height="18" rx="1" fill="#080808"/>
    
    <!-- Disipadores verticales / ranuras -->
    <g fill="#070707">
      <rect x="18" y="482" width="4" height="34"/>
      <rect x="28" y="482" width="4" height="34"/>
      <rect x="38" y="482" width="4" height="34"/>
      <rect x="48" y="482" width="4" height="34"/>
      <rect x="58" y="482" width="4" height="34"/>
    </g>

    <!-- Brazo / Brida de acople acorazada a la base naranja -->
    <path d="M 68 492 L 86 492 L 86 544 L 68 544 Z" fill="#962a00" filter="url(#sh)"/>
    <path d="M 66 488 L 84 488 L 84 540 L 66 540 Z" fill="url(#ogV)"/>
    <!-- Tornillos del acople -->
    <circle cx="75" cy="497" r="3" fill="#222" stroke="#ff5a0a" stroke-width="0.7"/>
    <circle cx="75" cy="530" r="3" fill="#222" stroke="#ff5a0a" stroke-width="0.7"/>
    
    <!-- Caja de conexiones eléctrica saliente inferior izquierda -->
    <rect x="22" y="520" width="34" height="20" rx="2" fill="#1a1a1a" filter="url(#shS)"/>
    <rect x="24" y="522" width="30" height="16" rx="1" fill="#0e0e0e"/>
    <circle cx="30" cy="526" r="1.5" fill="#333"/>
    <circle cx="48" cy="526" r="1.5" fill="#333"/>
    
    <!-- Tubo metálico pequeño o conector -->
    <rect x="56" y="528" width="16" height="4" fill="#666"/>

    <!-- ══════════════════════════════════════════════
        CAPA 3 — TORSO DIAGONAL (MOTOR CENTRAL Y OREJA)
        ══════════════════════════════════════════════ -->

    <!-- BASE recta / trapezoidal que encaja sobre el cilindro negro -->
    <!-- Ensanchada para sobresalir hasta la esquina de la oreja (aprox x=280) -->
    <rect x="46" y="356" width="264" height="6" rx="2" fill="#9e3000" filter="url(#sh)"/>
    <rect x="48" y="354" width="260" height="4" fill="#fc7422"/>
    
    <!-- Pernos de la base -->
    <circle cx="65"  cy="358" r="2.5" fill="#444" stroke="#888" stroke-width="0.5"/>
    <circle cx="178" cy="358" r="2.5" fill="#444" stroke="#888" stroke-width="0.5"/>
    <circle cx="291" cy="358" r="2.5" fill="#444" stroke="#888" stroke-width="0.5"/>

    <!-- "OREJA" - Conecta con el cuerpo tangente y soporta el gran eje del hombro -->
    <g id="oreja_posterior" filter="url(#sh)">

            
      <path d="M 210,356 
              L 270,356 
              C 300,356 353,320 365,270
              C 373,205 330,195 308,195
              C 280,195 240,245 210,270
              Z" 
            fill="#c44000"/>

      <path d="M 205,356 
              L 245,356 
              C 280,356 345,320 350,270
              C 373,205 330,195 308,195
              C 285,200 245,250 215,275
              Z" 
            fill="url(#ogDR)"/>
  </g>

    <!-- MOTOR INTERNO CENTRAL -->
    <g id="motor_interno" filter="url(#sh)">
      <rect x="147" y="240" width="62" height="116" rx="3" fill="#141414"/>
      <rect x="149" y="242" width="58" height="112" rx="2" fill="#0e0e0e"/>
      <!-- Highlight especular sobre cilindro del motor -->
      <rect x="149" y="242" width="10" height="112" fill="#2c2c2c" opacity="0.7"/>
      <line x1="154" y1="242" x2="154" y2="354" stroke="#4a4a4a" stroke-width="1"/>
      <!-- Ranuras horizontales del bloque central (más compactas) -->
      <rect x="149" y="260" width="58" height="3.5" fill="#080808"/>
      <rect x="149" y="280" width="58" height="3.5" fill="#080808"/>
      <rect x="149" y="300" width="58" height="3.5" fill="#080808"/>
      <rect x="149" y="320" width="58" height="3.5" fill="#080808"/>
    </g>

    <!-- CONECTORES QUE SOBRESALEN DEL MOTOR POR LA IZQUIERDA -->
    <g id="conectores_motor" filter="url(#shS)">
      <rect x="126" y="255" width="22" height="20" rx="2" fill="#181818"/>
      <rect x="118" y="258" width="8" height="5" fill="#0b0b0b" rx="1"/>
      <rect x="118" y="267" width="8" height="5" fill="#0b0b0b" rx="1"/>
      <rect x="132" y="292" width="16" height="16" rx="2" fill="#181818"/>
      <rect x="124" y="297" width="8" height="5" fill="#0b0b0b" rx="1"/>
    </g>

    <!-- CUERPO PRINCIPAL — Perfil frontal redondeado (continuidad oreja-base) -->
    <!-- Ancho reducido para no tapar el motor, borde tangencial a la oreja -->
    <!-- D=102 a 210, curva suave cóncava superior -->
    <path d="M 102,356 L 210,356 C 210,310 215,285 220,265 C 190,295 140,320 102,320 Z" fill="#b03600" filter="url(#sh)"/>
    <path d="M 102,356 L 205,356 C 205,310 210,290 215,270 C 190,295 140,320 102,320 Z" fill="url(#ogH)" opacity="0.8"/>
    
    <!-- Highlight vertical izquierdo -->
    <path d="M 102,356 L 112,356 C 112,340 110,325 102,320 Z" fill="#ff7e28" opacity="0.25"/>
    
    <!-- Borde superior curvo, tangente perfecta a la curva de la oreja superior que baja hasta (205,265) -->
    <path d="M 102,320 C 140,320 190,290 220,265" stroke="#ff7010" stroke-width="3" fill="none" stroke-linecap="round"/>
    <path d="M 102,322 C 140,322 190,292 218,267" stroke="#7a2800" stroke-width="1.5" fill="none" stroke-linecap="round"/>



</g>
  
<!-- ══════════════════════════════════════════════
     ESLABON 2 (Traído desde el draft)
     Posicionado en nuestro codo real (119, 93)
     ══════════════════════════════════════════════ -->
<g id="eslabon2" transform="translate(119, 93) rotate( -12 ) translate(-215, -300)">
  

  <defs>
    <!-- Gradients -->
    <linearGradient id="ogV" x1="0%" y1="0%" x2="0%" y2="100%">
      <stop offset="0%" stop-color="#ff6000"/>
      <stop offset="50%" stop-color="#dd4000"/>
      <stop offset="100%" stop-color="#992000"/>
    </linearGradient>
    <linearGradient id="ogH" x1="0%" y1="0%" x2="100%" y2="0%">
      <stop offset="0%" stop-color="#ff7010"/>
      <stop offset="50%" stop-color="#dd4000"/>
      <stop offset="100%" stop-color="#992000"/>
    </linearGradient>
    <linearGradient id="motorG" x1="0%" y1="0%" x2="0%" y2="100%">
      <stop offset="0%" stop-color="#2a2a2a"/>
      <stop offset="20%" stop-color="#111"/>
      <stop offset="100%" stop-color="#000"/>
    </linearGradient>
    <linearGradient id="silverG" x1="0%" y1="0%" x2="0%" y2="100%">
      <stop offset="0%" stop-color="#f0f0f0"/>
      <stop offset="40%" stop-color="#c0c0c0"/>
      <stop offset="100%" stop-color="#707070"/>
    </linearGradient>
    <filter id="sh" x="-10%" y="-10%" width="130%" height="130%">
      <feDropShadow dx="2" dy="5" stdDeviation="4" flood-color="#000" flood-opacity="0.4"/>
    </filter>
  </defs>

  <!-- MOTORES NEMA TRASEROS (Ahora desplazados hacia ABAJO respecto al centro Y=300) -->
  <g filter="url(#sh)">
    <!-- Backplate union a motores -->
    <!-- El centro de la articulacion es Y=300, pero los motores inician en 280 y bajan hasta 365 -->
    <path d="M 215,265 
             L 165,265 C 150,265 145,268 145,278
             L 145,350 C 145,360 150,365 165,390
             L 230,365
             Z" fill="url(#ogV)"/>
             

    <!-- M1 (Top) -->
    <!-- Bajamos el banco entero de Y=260 a Y=272 -->
    <g transform="translate(86, 268)">
      <rect x="0" y="0" width="70" height="34" rx="2" fill="url(#motorG)" stroke="#333" stroke-width="1"/>
      <rect x="60" y="2" width="6" height="20" fill="#181818"/>
      <line x1="12" y1="0" x2="12" y2="24" stroke="#000" stroke-width="2"/>
      <line x1="24" y1="0" x2="24" y2="24" stroke="#000" stroke-width="2"/>
      <line x1="36" y1="0" x2="36" y2="24" stroke="#000" stroke-width="2"/>
      <line x1="48" y1="0" x2="48" y2="24" stroke="#000" stroke-width="2"/>
      <rect x="5" y="8" width="50" height="8" rx="1" fill="#000"/>
      <rect x="10" y="10" width="4" height="4" fill="#0ca131ff"/>
    </g>
    <!-- M2 (Middle) -->
    <g transform="translate(86, 312)">
      <rect x="0" y="0" width="70" height="34" rx="2" fill="url(#motorG)" stroke="#333" stroke-width="1"/>
      <rect x="60" y="2" width="6" height="20" fill="#181818"/>
      <line x1="12" y1="0" x2="12" y2="24" stroke="#000" stroke-width="2"/>
      <line x1="24" y1="0" x2="24" y2="24" stroke="#000" stroke-width="2"/>
      <line x1="36" y1="0" x2="36" y2="24" stroke="#000" stroke-width="2"/>
      <line x1="48" y1="0" x2="48" y2="24" stroke="#000" stroke-width="2"/>
      <rect x="5" y="8" width="50" height="8" rx="1" fill="#000"/>
      <rect x="10" y="10" width="4" height="4" fill="#09f831ff"/>
    </g>
    <!-- M3 (Bottom) -->
    <!-- Desplazado ligeramente a la derecha (x=102) como se ve en el robot -->
    <g transform="translate(100, 357)">
      <rect x="0" y="0" width="70" height="34" rx="2" fill="url(#motorG)" stroke="#333" stroke-width="1"/>
      <rect x="60" y="2" width="6" height="20" fill="#181818"/>
      <line x1="12" y1="0" x2="12" y2="24" stroke="#000" stroke-width="2"/>
      <line x1="24" y1="0" x2="24" y2="24" stroke="#000" stroke-width="2"/>
      <line x1="36" y1="0" x2="36" y2="24" stroke="#000" stroke-width="2"/>
      <line x1="48" y1="0" x2="48" y2="24" stroke="#000" stroke-width="2"/>
      <rect x="5" y="8" width="50" height="8" rx="1" fill="#000"/>
      <rect x="10" y="10" width="4" height="4" fill="#fa0606ff"/>
    </g>
  </g>

  <!-- CUERPO ESLABÓN 2 (BRAZO) Y ARTICULACIÓN CODO -->
  <g filter="url(#sh)">
    <!-- Perfil Orgánico Completo: Panzón atrás, estrecho en medio -->
    <!-- El centro disminuye (afina) en vez de ser recio -->
    <path d="M 215,257
             C 250,257 265,280 344,280
             L 344,320
             C 265,320 250,343 215,343
             A 43 43 0 0 1 215,257
             Z" fill="url(#ogV)"/>
             
    <!-- Luz superior cóncava - afinando el medio -->
    <path d="M 215,257 C 250,257 265,280 344,280 L 344,285 C 265,285 250,266 215,266 Z" fill="#ff7010" opacity="0.4"/>
    
    <!-- Sombra inferior -->
    <path d="M 344,312 L 344,320 C 265,320 250,343 215,343 C 250,343 265,312 344,312 Z" fill="#782400" opacity="0.6"/>

    <!-- Nervadura central también sigue el afinamiento -->
    <path d="M 270,300 L 335,300" stroke="#a83000" stroke-width="4.5" fill="none" opacity="0.5"/>
    <path d="M 270,306 L 335,306" stroke="#a83000" stroke-width="2" fill="none" opacity="0.5"/>

    <!-- ARTICULACIÓN BASE JOINT (CODO - Radio exterior = 43) -->
    <circle cx="215" cy="300" r="43" fill="#c44000"/>
    <circle cx="215" cy="300" r="41" fill="url(#ogH)" opacity="0.8"/>

    <!-- Tornillos periféricos del Codo -->
    <g transform="translate(215, 300)">
      <circle cx="36" cy="0" r="2.5" fill="#e0e0e0" stroke="#777"/>
      <circle cx="31.2" cy="18" r="2.5" fill="#e0e0e0" stroke="#777"/>
      <circle cx="18" cy="31.2" r="2.5" fill="#e0e0e0" stroke="#777"/>
      <circle cx="0" cy="36" r="2.5" fill="#e0e0e0" stroke="#777"/>
      <circle cx="-18" cy="31.2" r="2.5" fill="#e0e0e0" stroke="#777"/>
      <circle cx="-31.2" cy="18" r="2.5" fill="#e0e0e0" stroke="#777"/>
      <circle cx="-36" cy="0" r="2.5" fill="#e0e0e0" stroke="#777"/>
      <circle cx="-31.2" cy="-18" r="2.5" fill="#e0e0e0" stroke="#777"/>
      <circle cx="-18" cy="-31.2" r="2.5" fill="#e0e0e0" stroke="#777"/>
      <circle cx="0" cy="-36" r="2.5" fill="#e0e0e0" stroke="#777"/>
      <circle cx="18" cy="-31.2" r="2.5" fill="#e0e0e0" stroke="#777"/>
      <circle cx="31.2" cy="-18" r="2.5" fill="#e0e0e0" stroke="#777"/>
    </g>

    <circle cx="215" cy="300" r="28" fill="#a03000" stroke="#802000" stroke-width="1"/>
    <circle cx="215" cy="300" r="28" fill="#000" opacity="0.15"/>
    <circle cx="215" cy="300" r="14" fill="#a03000"/>
    <circle cx="215" cy="300" r="14" fill="#fff" opacity="0.1"/>

    <!-- HUECO DE CABLES GROMMET (Col 3, movido mas al cuello) -->
    <g transform="translate(265, 275) rotate(-10)">
      <ellipse cx="0" cy="0" rx="14" ry="7" fill="none" stroke="#050505" stroke-width="4.5"/>
      <ellipse cx="0" cy="0" rx="12" ry="5" fill="#180400"/>
      <path d="M -12,0 A 12 5 0 0 1 12,0 A 10 3 0 0 0 -12,0 Z" fill="#000" opacity="0.8"/>
    </g>
  </g>

  <!-- ══════════════════════════════════════════════
       MUÑECA (COL 4) y EFECTOR BLANCO (COL 5) Shrinked!
       ══════════════════════════════════════════════ -->
  <g filter="url(#sh)">
    <!-- COL 4 [344 - 430] MUÑECA PLATEADA/GRIS -->
    <!-- Como el brazo principal se achicó a 320, ajustamos estos conectores -->
    <path d="M 344,280 L 365,280 L 365,320 L 344,320 Z" fill="url(#silverG)"/>
    <rect x="344" y="280" width="6" height="40" fill="#ddd"/>
    <rect x="360" y="280" width="5" height="40" fill="#777"/>
    <line x1="352" y1="280" x2="352" y2="320" stroke="#999" stroke-width="1.5"/>

    <!-- Transición trapezoidal -->
    <polygon points="365,280 380,285 380,315 365,320" fill="#a0a0a0"/>
    <polygon points="365,280 380,285 380,295 365,290" fill="#f0f0f0"/>
    <polygon points="365,320 380,315 380,305 365,310" fill="#555"/>

    <rect x="380" y="285" width="6" height="30" fill="#222"/>

    <!-- Silver Cylindrical Final Swivel -->
    <path d="M 386,285 L 430,288 L 430,312 L 386,315 Z" fill="url(#silverG)"/>
    <polygon points="386,285 430,288 430,292 386,289" fill="#eee"/>
    <polygon points="386,315 430,312 430,306 386,309" fill="#666"/>
    <line x1="406" y1="287" x2="406" y2="313" stroke="#999" stroke-width="1.5"/>

    <!-- COL 5 [430 - 516] BULBO BLANCO (END EFFECTOR) -->
    <!-- Anillo negro de acople base -->
    <polygon points="430,288 433,288 433,312 430,312" fill="#111"/>

    <!-- BULBO TEARDROP BLANCO SHRUNK -->
    <!-- Lo encogemos achicando los controles del bezier -->
    <path d="M 433,288 
             C 445,268 460,268 495,294
             L 495,306
             C 460,332 445,332 433,312 Z" fill="url(#silverG)"/>
             
    <!-- Brillo superior central -->
    <path d="M 433,288 
             C 445,268 460,268 495,294
             L 495,298
             C 460,275 445,280 433,295 Z" fill="#fff" opacity="0.8"/>
             
    <!-- Sombra inferior curva -->
    <path d="M 434,312 
             C 445,332 460,332 495,306
             L 495,302 
             C 460,324 445,316 434,304 Z" fill="#444" opacity="0.25"/>
             
    <!-- Logo KUKA lateral de la herramienta final -->
    <!-- Movido más a la izquierda para que quepa en el bulbo chico -->
    <g transform="translate(460, 303)">
      <text x="0" y="0" font-family="Arial Black, Impact, sans-serif" font-size="10" font-weight="900" fill="#111" text-anchor="middle" letter-spacing="1">KUKA</text>
    </g>

    <!-- TRIMMING FINAL (TOOL FLANGE NEGRO) -->
    <rect x="495" y="294" width="4" height="12" fill="#000"/>
    <rect x="499" y="297" width="2" height="6" fill="#444"/>
  </g>


</g>

<!-- ══════════════════════════════════════════════
    ESLABÓN 1 (DISEÑO ROBUSTO CON HUECOS)
    hombro(308,247) → codo(119,93)
    ══════════════════════════════════════════════ -->
  <g id="eslabon1" transform="translate(308, 247) rotate(-140.826)">
    <defs>
      <!-- Gradients -->
      <linearGradient id="ogV" x1="0%" y1="0%" x2="0%" y2="100%">
        <stop offset="0%" stop-color="#ff6000"/>
        <stop offset="50%" stop-color="#dd4000"/>
        <stop offset="100%" stop-color="#992000"/>
      </linearGradient>
      <filter id="sh" x="-10%" y="-10%" width="130%" height="130%">
        <feDropShadow dx="2" dy="5" stdDeviation="4" flood-color="#000" flood-opacity="0.4"/>
      </filter>
    </defs>



    <!-- ESLABON 1 HORIZONTAL (Construido desde X=0 hasta X=244) -->
    <g filter="url(#sh)">
      
      <!-- Base Sombra -->
      <!-- Controles de curva para lipo: Centro es recto en Y=±32, Extremos hacen curva hacia afuera -->
      <path d="M 0,-50 
              C 40,-50 60,-36 90,-36
              L 154,-36
              C 184,-36 204,-40 244,-40
              A 38 38 0 0 1 244,42
              C 204,42 184,36 154,36
              L 90,36
              C 60,36 40,50 0,50
              A 45 45 0 0 1 0,-50 Z" fill="#782400" opacity="0.53" transform="translate(1, 4)"/>
              
      <!-- Cuerpo Principal Naranja -->
      <path d="M 0,-45 
              C 40,-45 60,-25 90,-25
              L 154,-25
              C 184,-25 204,-38 244,-38
              A 38 38 0 0 1 244,38
              C 204,38 184,32 154,32
              L 90,32
              C 60,32 40,45 0,45
              A 45 45 0 0 1 0,-45 Z" fill="url(#ogV)"/>
              
      <!-- Luz superior (Brillo para volumen) -->
      <path d="M 0,-45 
              C 40,-45 60,-25 90,-25
              L 154,-25
              C 184,-25 204,-38 244,-38
              L 244,-34
              C 204,-34 184,-28 154,-28
              L 90,-28
              C 60,-28 40,-40 0,-40 Z" fill="#ff7010" opacity="0.4"/>



      <!-- HUB DEL HOMBRO (Izquierda, r=45) -->
      <g>
        <circle cx="0" cy="0" r="45" fill="#3c3c3c" stroke="#555" stroke-width="2"/>
        <circle cx="0" cy="0" r="34" fill="#2a2a2a"/>
        <circle cx="0" cy="0" r="18" fill="#1a1a1a" stroke="#444" stroke-width="1.5"/>
        <!-- Tornillos -->
        <circle cx="0" cy="-35" r="3" fill="#a0a0a0" stroke="#707070" stroke-width="0.8"/>
        <circle cx="25" cy="-25" r="3" fill="#a0a0a0" stroke="#707070" stroke-width="0.8"/>
        <circle cx="35" cy="0" r="3" fill="#a0a0a0" stroke="#707070" stroke-width="0.8"/>
        <circle cx="25" cy="25" r="3" fill="#a0a0a0" stroke="#707070" stroke-width="0.8"/>
        <circle cx="0" cy="35" r="3" fill="#a0a0a0" stroke="#707070" stroke-width="0.8"/>
        <circle cx="-25" cy="25" r="3" fill="#a0a0a0" stroke="#707070" stroke-width="0.8"/>
        <circle cx="-35" cy="0" r="3" fill="#a0a0a0" stroke="#707070" stroke-width="0.8"/>
        <circle cx="-25" cy="-25" r="3" fill="#a0a0a0" stroke="#707070" stroke-width="0.8"/>
      </g>

      <!-- HUB DEL CODO (Derecha, r=38) -->
      <g transform="translate(244, 0)">
        <circle cx="0" cy="0" r="38" fill="#3c3c3c" stroke="#555" stroke-width="2"/>
        <circle cx="0" cy="0" r="30" fill="#2a2a2a"/>
        <circle cx="0" cy="0" r="14" fill="#1a1a1a" stroke="#444" stroke-width="1.5"/>
        <!-- Tornillos -->
        <circle cx="0" cy="-30" r="2.5" fill="#a0a0a0" stroke="#707070" stroke-width="0.8"/>
        <circle cx="21" cy="-21" r="2.5" fill="#a0a0a0" stroke="#707070" stroke-width="0.8"/>
        <circle cx="30" cy="0" r="2.5" fill="#a0a0a0" stroke="#707070" stroke-width="0.8"/>
        <circle cx="21" cy="21" r="2.5" fill="#a0a0a0" stroke="#707070" stroke-width="0.8"/>
        <circle cx="0" cy="30" r="2.5" fill="#a0a0a0" stroke="#707070" stroke-width="0.8"/>
        <circle cx="-21" cy="21" r="2.5" fill="#a0a0a0" stroke="#707070" stroke-width="0.8"/>
        <circle cx="-30" cy="0" r="2.5" fill="#a0a0a0" stroke="#707070" stroke-width="0.8"/>
        <circle cx="-21" cy="-21" r="2.5" fill="#a0a0a0" stroke="#707070" stroke-width="0.8"/>
      </g>



      <!-- ETIQUETA KUKA CENTRAL -->
      <g transform="translate(122, 0)">
        <rect x="-35" y="-12" width="70" height="24" rx="3" fill="#111" stroke="#222" stroke-width="1"/>
        <text x="0" y="5" font-family="Arial Black, Impact, sans-serif" font-size="16" font-weight="900" fill="#ff7010" text-anchor="middle" letter-spacing="2">KUKA</text>
      </g>
      
    </g>
  </g>

     
<g id="cables y abrazaderas">
  <!-- CABLES / MANGUERAS NATURALES Y CURVAS -->
  <!-- Bucle colgante, subiendo por la oreja tangencial y conectando hacia el hombro derecho -->
  <g>
    <path d="M 118,260 C 50,260 50,360 140,350 C 200,340 250,320 290,245"
          stroke="#0e0e0e" stroke-width="10" fill="none" stroke-linecap="round" filter="url(#shS)"/>
    <path d="M 118,260 C 50,260 50,360 140,350 C 200,340 250,320 290,245"
          stroke="#1a1a1a" stroke-width="4" fill="none" stroke-linecap="round"/>
          
    <path d="M 124,300 C 70,300 85,340 145,335 C 190,330 240,310 280,240"
          stroke="#121212" stroke-width="6.5" fill="none" stroke-linecap="round"/>
    <path d="M 124,300 C 70,300 85,340 145,335 C 190,330 240,310 280,240"
          stroke="#1c1c1c" stroke-width="2" fill="none" stroke-linecap="round"/>
          
    <path d="M 118,270 C 65,270 65,350 148,342 C 210,335 260,310 300,235"
          stroke="#2a2a2a" stroke-width="3.5" fill="none" stroke-linecap="round"/>
  </g>

  <!-- Abrazaderas de cables -->
  <rect x="145" y="338" width="22" height="7" rx="2" fill="#666" transform="rotate(-15, 156, 341)"/>
  <rect x="220" y="302" width="26" height="9" rx="2" fill="#666" transform="rotate(-40, 233, 306)"/>
  <rect x="222" y="304" width="22" height="5" rx="1" fill="#888" transform="rotate(-40, 233, 306)"/>


</g>


</svg>
