<svg xmlns="http://www.w3.org/2000/svg" viewBox="0 0 560 610" width="560" height="610">
  <defs>
    <linearGradient id="ogH" x1="0%" y1="0%" x2="100%" y2="0%">
      <stop offset="0%"   stop-color="#b83a00"/>
      <stop offset="28%"  stop-color="#ff6000"/>
      <stop offset="62%"  stop-color="#ff5000"/>
      <stop offset="100%" stop-color="#a83200"/>
    </linearGradient>
    <linearGradient id="ogV" x1="0%" y1="0%" x2="0%" y2="100%">
      <stop offset="0%"   stop-color="#ff6e0e"/>
      <stop offset="42%"  stop-color="#ff5800"/>
      <stop offset="100%" stop-color="#b83800"/>
    </linearGradient>
    <linearGradient id="ogDR" x1="0%" y1="100%" x2="100%" y2="0%">
      <stop offset="0%"   stop-color="#b63600"/>
      <stop offset="48%"  stop-color="#ff5800"/>
      <stop offset="100%" stop-color="#ff6c0c"/>
    </linearGradient>
    <linearGradient id="ogDL" x1="100%" y1="100%" x2="0%" y2="0%">
      <stop offset="0%"   stop-color="#b63600"/>
      <stop offset="48%"  stop-color="#ff5200"/>
      <stop offset="100%" stop-color="#ff6808"/>
    </linearGradient>
    <!-- Cilindro: gradiente lateral 2D con luces y sombras -->
    <linearGradient id="cylG" x1="0%" y1="0%" x2="100%" y2="0%">
      <stop offset="0%"   stop-color="#050505"/>
      <stop offset="10%"  stop-color="#1e1e1e"/>
      <stop offset="28%"  stop-color="#383838"/>
      <stop offset="48%"  stop-color="#464646"/>
      <stop offset="68%"  stop-color="#2c2c2c"/>
      <stop offset="88%"  stop-color="#121212"/>
      <stop offset="100%" stop-color="#040404"/>
    </linearGradient>
    <radialGradient id="capG" cx="38%" cy="35%" r="62%">
      <stop offset="0%"   stop-color="#404040"/>
      <stop offset="55%"  stop-color="#1c1c1c"/>
      <stop offset="100%" stop-color="#080808"/>
    </radialGradient>
    <linearGradient id="nemaG" x1="0%" y1="0%" x2="100%" y2="100%">
      <stop offset="0%"   stop-color="#222"/>
      <stop offset="100%" stop-color="#060606"/>
    </linearGradient>
    <linearGradient id="wG1" x1="0%" y1="0%" x2="100%" y2="0%">
      <stop offset="0%"   stop-color="#585858"/>
      <stop offset="32%"  stop-color="#a8a8a8"/>
      <stop offset="60%"  stop-color="#cacaca"/>
      <stop offset="100%" stop-color="#545454"/>
    </linearGradient>
    <linearGradient id="wG2" x1="0%" y1="0%" x2="100%" y2="0%">
      <stop offset="0%"   stop-color="#727272"/>
      <stop offset="50%"  stop-color="#c0c0c0"/>
      <stop offset="100%" stop-color="#626262"/>
    </linearGradient>
    <filter id="sh">
      <feDropShadow dx="2" dy="3" stdDeviation="4" flood-color="#00000065"/>
    </filter>
    <filter id="shS">
      <feDropShadow dx="1" dy="2" stdDeviation="2.5" flood-color="#00000052"/>
    </filter>
  </defs>

  <!--
    TODOS LOS PUNTOS MEDIDOS de imagen 620×633 y escalados con factor 1.183:
    torso_top/cx: (178, 377)    cil: 142×135
    hombro:       (268, 247)    r=38
    codo:         (119,  93)    r=28
    mun_ini:      (339,  60)
    mun_fin:      (496,  31)
    nema1:        ( 64,  81)    50×40
    plato_rot:    x=50 y=512  w=256 h=43
    plato_fij:    x=60 y=554  w=237 h=20
  -->

  <!-- ══════════════════════════════════════════════
       CAPA 1 — BASE: plato fijo + rotativo + cilindro
       ══════════════════════════════════════════════ -->

  <!-- ══════════════════════════════════════════════
       BASE PRINCIPAL OSCURA (NIVEL INFERIOR)
       ══════════════════════════════════════════════ -->
  <g filter="url(#sh)">
    <!-- Base estructural gruesa gris oscura -->
    <rect x="-10" y="562" width="400" height="42" rx="2" fill="#2c2c2c"/>
    <rect x="-10" y="562" width="400" height="3" fill="#444"/>
    
    <!-- Panel gris claro empotrado Central (más ancho para separar los bloques) -> ancho 120, centrado en 178 -> x=118 -->
    <rect x="118" y="556" width="120" height="30" fill="#a0a4a8"/>
    <rect x="118" y="583" width="120" height="3" fill="#808488"/>

    <!-- Bloques verticales naranjas flanqueando lo gris (más largos y más separados) -->
    <!-- Bloque Izquierdo (Ancho 28, x=90) -->
    <rect x="90" y="556" width="28" height="34" rx="2" fill="#c44000"/>
    <rect x="90" y="586" width="28" height="4" rx="1" fill="#9e3000"/>
    <circle cx="104" cy="568" r="5" fill="#silver" fill-opacity="0.9" stroke="#777" stroke-width="1"/>
    <circle cx="104" cy="568" r="2" fill="#222"/>
    
    <!-- Bloque Derecho (Ancho 28, x=238) -->
    <rect x="238" y="556" width="28" height="34" rx="2" fill="#c44000"/>
    <rect x="238" y="586" width="28" height="4" rx="1" fill="#9e3000"/>
    <circle cx="252" cy="568" r="5" fill="#silver" fill-opacity="0.9" stroke="#777" stroke-width="1"/>
    <circle cx="252" cy="568" r="2" fill="#222"/>
  </g>

  <!-- ══════════════════════════════════════════════
       PATÍN DESLIZANTE (BASE NARANJA SUPERIOR)
       Centrado absoluto bajo el cilindro rotativo (Centro = 178)
       ══════════════════════════════════════════════ -->
  <g filter="url(#sh)">
    <!-- Cuerpo central del patín -->
    <rect x="43" y="534" width="270" height="28" rx="4" fill="#9e3000"/>
    <rect x="43" y="531" width="270" height="26" rx="4" fill="url(#ogH)"/>
    
    <!-- Reborde saliente grueso (frontal) con "hueco" de 44px en el medio (156 a 200) -->
    <rect x="43" y="546" width="113" height="15" rx="3" fill="#c44000"/>
    <rect x="43" y="550" width="113" height="7" rx="2" fill="#a03000"/>
    
    <rect x="200" y="546" width="113" height="15" rx="3" fill="#c44000"/>
    <rect x="200" y="550" width="113" height="7" rx="2" fill="#a03000"/>

    <!-- Orejas / Rectángulos naranjas laterales con ruedas grises -->
    <rect x="15" y="540" width="28" height="24" rx="3" fill="#c44000"/>
    <rect x="15" y="542" width="28" height="6" fill="#f06010" opacity="0.4"/>
    
    <rect x="313" y="540" width="28" height="24" rx="3" fill="#c44000"/>
    <rect x="313" y="542" width="28" height="6" fill="#f06010" opacity="0.4"/>
  </g>

  <!-- ESCUADRA / CLAMP METÁLICO NEGRO MÁS LARGA -->
  <g filter="url(#sh)">
    <!-- Clamp negro más largo hacia abajo (altura 55) -->
    <rect x="157" y="540" width="42" height="55" rx="4" fill="#1c1c1c"/>
    <rect x="158" y="541" width="40" height="4" rx="2" fill="#3a3a3a"/>
  </g>
  <!-- Tornillos superiores (en la naranja) -->
  <circle cx="168" cy="548" r="3.2" fill="#silver" fill-opacity="0.9" stroke="#999" stroke-width="0.8"/>
  <circle cx="168" cy="548" r="1.5" fill="#111"/>
  <circle cx="188" cy="548" r="3.2" fill="#silver" fill-opacity="0.9" stroke="#999" stroke-width="0.8"/>
  <circle cx="188" cy="548" r="1.5" fill="#111"/>
  
  <!-- Tornillo inferior desplazado hacia abajo en la placa más larga -->
  <circle cx="178" cy="582" r="5" fill="#silver" fill-opacity="0.9" stroke="#777" stroke-width="1.2"/>
  <circle cx="178" cy="582" r="2.5" fill="#222"/>
  <!-- Corte central/nervadura clásica en la parte inferior del clamp -->
  <rect x="177" y="589" width="2" height="6" fill="#111"/>

  <!-- Tornillería pesada negra con anillos plateados en los rebordes  -->
  <circle cx="65" cy="554" r="6" fill="#141414"/>
  <circle cx="65" cy="554" r="4.5" fill="#silver" fill-opacity="0.8" stroke="#eeddcc" stroke-width="0.8"/>
  <circle cx="65" cy="554" r="2" fill="#111"/>
  <circle cx="95" cy="554" r="6" fill="#141414"/>
  <circle cx="95" cy="554" r="4.5" fill="#silver" fill-opacity="0.8" stroke="#eeddcc" stroke-width="0.8"/>
  <circle cx="95" cy="554" r="2" fill="#111"/>
  
  <circle cx="261" cy="554" r="6" fill="#141414"/>
  <circle cx="261" cy="554" r="4.5" fill="#silver" fill-opacity="0.8" stroke="#eeddcc" stroke-width="0.8"/>
  <circle cx="261" cy="554" r="2" fill="#111"/>
  <circle cx="291" cy="554" r="6" fill="#141414"/>
  <circle cx="291" cy="554" r="4.5" fill="#silver" fill-opacity="0.8" stroke="#eeddcc" stroke-width="0.8"/>
  <circle cx="291" cy="554" r="2" fill="#111"/>

  <!-- Tornillos GRANDES plateados en las orejas laterales naranjas -->
  <circle cx="29" cy="552" r="6.5" fill="#e0e0e0" filter="url(#shS)"/>
  <circle cx="29" cy="552" r="4" fill="#a0a0a0" stroke="#707070" stroke-width="1"/>
  <circle cx="29" cy="552" r="2" fill="#333"/>
  
  <circle cx="327" cy="552" r="6.5" fill="#e0e0e0" filter="url(#shS)"/>
  <circle cx="327" cy="552" r="4" fill="#a0a0a0" stroke="#707070" stroke-width="1"/>
  <circle cx="327" cy="552" r="2" fill="#333"/>
  <!-- Terminales/Cables saliendo de la esquina derecha de la base -->
  <path d="M 312 552 C 322 552 334 565 330 575" stroke="#111" stroke-width="4.5" fill="none" stroke-linecap="round"/>
  <path d="M 314 558 C 324 558 335 570 328 580" stroke="#050505" stroke-width="6" fill="none" stroke-linecap="round"/>

  <!-- PLATO ROTATIVO  x=50 y=512 w=256 h=43 -->
  <ellipse cx="178" cy="555" rx="130" ry="13" fill="#00000040"/>
  <rect x="50"  y="517" width="256" height="38" rx="6" fill="#982e00" filter="url(#sh)"/>
  <rect x="50"  y="512" width="256" height="38" rx="6" fill="url(#ogH)"/>
  <!-- Labio reborde inferior pronunciado -->
  <rect x="44"  y="541" width="268" height="14" rx="5" fill="#ae3c00"/>
  <rect x="44"  y="538" width="268" height="14" rx="5" fill="#c44400"/>
  <!-- Línea separación interior -->
  <line x1="50" y1="530" x2="306" y2="530" stroke="#7c2200" stroke-width="1.6"/>
  <!-- Tornillos perimetrales (10 tornillos) -->
  <circle cx=" 62" cy="522" r="3.5" fill="#7a2800" stroke="#ff5400" stroke-width="0.8"/>
  <circle cx=" 88" cy="515" r="3.5" fill="#7a2800" stroke="#ff5400" stroke-width="0.8"/>
  <circle cx="124" cy="512" r="3.5" fill="#7a2800" stroke="#ff5400" stroke-width="0.8"/>
  <circle cx="178" cy="511" r="3.5" fill="#7a2800" stroke="#ff5400" stroke-width="0.8"/>
  <circle cx="232" cy="512" r="3.5" fill="#7a2800" stroke="#ff5400" stroke-width="0.8"/>
  <circle cx="268" cy="515" r="3.5" fill="#7a2800" stroke="#ff5400" stroke-width="0.8"/>
  <circle cx="294" cy="522" r="3.5" fill="#7a2800" stroke="#ff5400" stroke-width="0.8"/>
  <circle cx=" 62" cy="540" r="3.5" fill="#7a2800" stroke="#ff5400" stroke-width="0.8"/>
  <circle cx="294" cy="540" r="3.5" fill="#7a2800" stroke="#ff5400" stroke-width="0.8"/>
  <!-- Cable entrando lateral derecho -->
  <path d="M 306 522 C 320 520 328 511 330 496"
        stroke="#090909" stroke-width="6.5" fill="none" stroke-linecap="round"/>
  <path d="M 306 528 C 321 526 330 516 332 501"
        stroke="#151515" stroke-width="4"   fill="none" stroke-linecap="round"/>

  <!-- CILINDRO NEGRO — VISTA LATERAL = CUADRADO ANCHO -->
  <!-- Más ancho que la base naranja. Centro en 178. Ancho 180 -> x=88 -->
  
  <!-- Sombra sobre el plato -->
  <rect x="88" y="497" width="180" height="18" rx="2" fill="#00000038"/>
  
  <!-- FRANJA NARANJA EN EL PIE DEL CILINDRO (zona de acople al plato) -->
  <rect x="88" y="486" width="180" height="28" rx="3" fill="#c44000" filter="url(#sh)"/>
  <rect x="88" y="486" width="180" height="24" rx="3" fill="url(#ogH)"/>
  <!-- Tornillos naranjas del collarín pie -->
  <circle cx="108" cy="498" r="3" fill="#7a2800" stroke="#ff5400" stroke-width="0.8"/>
  <circle cx="148" cy="498" r="3" fill="#7a2800" stroke="#ff5400" stroke-width="0.8"/>
  <circle cx="208" cy="498" r="3" fill="#7a2800" stroke="#ff5400" stroke-width="0.8"/>
  <circle cx="248" cy="498" r="3" fill="#7a2800" stroke="#ff5400" stroke-width="0.8"/>
  
  <!-- CUERPO CUADRADO NEGRO PRINCIPAL (el cilindro visto de lado) -->
  <rect x="88" y="370" width="180" height="116" rx="5" fill="url(#cylG)" filter="url(#sh)"/>
  <!-- Highlight especular izquierdo -->
  <rect x="88" y="370" width="22" height="116" rx="5" fill="#1c1c1c" opacity="0.85"/>
  <line x1="96" y1="378" x2="96" y2="480" stroke="#3c3c3c" stroke-width="1.5" opacity="0.6"/>
  <!-- Franja highlight central -->
  <rect x="148" y="370" width="44" height="116" fill="#505050" opacity="0.22"/>
  <!-- Franja oscura derecha -->
  <rect x="243" y="370" width="25" height="116" rx="5" fill="#0a0a0a" opacity="0.85"/>
  
  <!-- Ranuras horizontales de fundición -->
  <rect x="88" y="410" width="180" height="4" fill="#0a0a0a" opacity="0.7"/>
  <rect x="88" y="430" width="180" height="4" fill="#0a0a0a" opacity="0.7"/>
  <rect x="88" y="450" width="180" height="4" fill="#0a0a0a" opacity="0.7"/>
  <rect x="88" y="470" width="180" height="4" fill="#0a0a0a" opacity="0.7"/>
  
  <!-- Tapa superior plana (no elipse, cuadrada) -->
  <rect x="88" y="365" width="180" height="10" rx="3" fill="#3c3c3c"/>
  <rect x="88" y="362" width="180" height="10" rx="3" fill="#2a2a2a"/>
  
  <!-- UNIÓN CILINDRO-TORSO: Tuercas grises en la parte superior -->
  <circle cx="108" cy="372" r="4.5" fill="#b0b0b0" stroke="#777" stroke-width="1"/>
  <circle cx="108" cy="372" r="2" fill="#555"/>
  <circle cx="148" cy="372" r="4.5" fill="#b0b0b0" stroke="#777" stroke-width="1"/>
  <circle cx="148" cy="372" r="2" fill="#555"/>
  <circle cx="208" cy="372" r="4.5" fill="#b0b0b0" stroke="#777" stroke-width="1"/>
  <circle cx="208" cy="372" r="2" fill="#555"/>
  <circle cx="248" cy="372" r="4.5" fill="#b0b0b0" stroke="#777" stroke-width="1"/>
  <circle cx="248" cy="372" r="2" fill="#555"/>

  <!-- ══════════════════════════════════════════════
       MOTOR DE TRACCIÓN (DETRÁS PATÍN IZQUIERDA)
       ══════════════════════════════════════════════ -->
  <!-- Bloque / Caja de engranajes principal -->
  <rect x="12" y="478" width="56" height="42" rx="3" fill="#141414" filter="url(#sh)"/>
  <!-- Cilindro de motor asomando horizontalmente -->
  <rect x="-8" y="488" width="24" height="22" rx="2" fill="#202020"/>
  <rect x="-6" y="490" width="18" height="18" rx="1" fill="#080808"/>
  
  <!-- Disipadores verticales / ranuras -->
  <g fill="#070707">
    <rect x="18" y="482" width="4" height="34"/>
    <rect x="28" y="482" width="4" height="34"/>
    <rect x="38" y="482" width="4" height="34"/>
    <rect x="48" y="482" width="4" height="34"/>
    <rect x="58" y="482" width="4" height="34"/>
  </g>

  <!-- Brazo / Brida de acople acorazada a la base naranja -->
  <path d="M 68 492 L 86 492 L 86 544 L 68 544 Z" fill="#962a00" filter="url(#sh)"/>
  <path d="M 66 488 L 84 488 L 84 540 L 66 540 Z" fill="url(#ogV)"/>
  <!-- Tornillos del acople -->
  <circle cx="75" cy="497" r="3" fill="#222" stroke="#ff5a0a" stroke-width="0.7"/>
  <circle cx="75" cy="530" r="3" fill="#222" stroke="#ff5a0a" stroke-width="0.7"/>
  
  <!-- Caja de conexiones eléctrica saliente inferior izquierda -->
  <rect x="22" y="520" width="34" height="20" rx="2" fill="#1a1a1a" filter="url(#shS)"/>
  <rect x="24" y="522" width="30" height="16" rx="1" fill="#0e0e0e"/>
  <circle cx="30" cy="526" r="1.5" fill="#333"/>
  <circle cx="48" cy="526" r="1.5" fill="#333"/>
  
  <!-- Tubo metálico pequeño o conector -->
  <rect x="56" y="528" width="16" height="4" fill="#666"/>

  <!-- ══════════════════════════════════════════════
       CAPA 3 — TORSO DIAGONAL + DISPOSITIVO NEGRO
       ══════════════════════════════════════════════ -->

  <!-- DISPOSITIVO / CAJA NEGRA DETRÁS DEL TORSO (visible a la izquierda) -->
  <!-- Es el bloque compacto negro que se ve asomando entre el cilindro y el torso -->
  <g filter="url(#sh)">
    <rect x="88" y="310" width="50" height="55" rx="4" fill="#141414"/>
    <rect x="90" y="312" width="46" height="51" rx="3" fill="#0e0e0e"/>
    <!-- Ranuras / disipadores -->
    <rect x="92" y="318" width="42" height="3" fill="#222"/>
    <rect x="92" y="328" width="42" height="3" fill="#222"/>
    <rect x="92" y="338" width="42" height="3" fill="#222"/>
    <rect x="92" y="348" width="42" height="3" fill="#222"/>
    <!-- Conector superior -->
    <rect x="103" y="305" width="22" height="10" rx="2" fill="#1a1a1a"/>
    <circle cx="110" cy="310" r="2" fill="#333"/>
    <circle cx="120" cy="310" r="2" fill="#333"/>
  </g>

  <!-- === TORSO DIAGONAL ORGÁNICO === -->
  <!-- Base circular del torso que asienta sobre la tapa del cilindro negro (y=362) -->
  <!-- La pieza naranja tiene una base circular que abraza la tapa plana del cilindro -->
  
  <!-- Base circular naranja (el pie sentado sobre el cilindro negro) -->
  <ellipse cx="178" cy="365" rx="65" ry="14" fill="#9e3000" filter="url(#sh)"/>
  <ellipse cx="178" cy="362" rx="65" ry="14" fill="#c44000"/>
  <ellipse cx="178" cy="362" rx="65" ry="7" fill="#e85800" opacity="0.5"/>

  <!-- Sombra trasera global del cuerpo diagonal -->
  <path d="M 228,362 C 258,344 322,288 318,228 L 250,202 C 230,260 172,325 128,348 Z"
        fill="#4e1400" opacity="0.50"/>

  <!-- CUERPO PRINCIPAL del torso -->
  <path d="M 225,360 C 254,342 318,286 315,226 L 245,200 C 228,258 168,322 125,346 Z"
        fill="#c83e00" filter="url(#sh)"/>

  <!-- Lóbulo derecho iluminado -->
  <path d="M 225,360 C 254,342 318,286 315,226 L 285,213
           C 278,270 230,330 172,350 Z"
        fill="url(#ogDR)"/>
  <path d="M 225,360 C 220,340 280,286 315,226 L 320,234
           C 288,294 234,346 228,363 Z"
        fill="#ff7e28" opacity="0.22"/>

  <!-- Canal / Ranura Central Quantec -->
  <path d="M 175,353 C 208,334 256,276 272,222"
        stroke="#5a1800" stroke-width="11" fill="none" stroke-linecap="round" opacity="0.78"/>
  <path d="M 175,353 C 208,334 256,276 272,222"
        stroke="#3a1000" stroke-width="7" fill="none" stroke-linecap="round" opacity="0.83"/>
  <path d="M 175,353 C 208,334 256,276 272,222"
        stroke="#7a3000" stroke-width="2" fill="none" stroke-linecap="round" opacity="0.32"/>

  <!-- Lóbulo izquierdo (en sombra) -->
  <path d="M 125,346 C 168,324 228,258 245,200 L 272,222
           C 256,276 208,334 175,353 Z"
        fill="#d04200" opacity="0.86"/>
  <path d="M 125,346 C 150,336 198,290 224,242 L 230,250
           C 204,298 158,340 130,351 Z"
        fill="#ff7010" opacity="0.15"/>
  <path d="M 125,346 C 138,340 152,328 165,318 L 169,324
           C 156,334 142,344 128,351 Z"
        fill="#5a1800" opacity="0.45"/>

  <!-- Nervaduras transversales -->
  <line x1="192" y1="342" x2="240" y2="324" stroke="#7a2800" stroke-width="1.8" opacity="0.38"/>
  <line x1="204" y1="322" x2="252" y2="304" stroke="#7a2800" stroke-width="1.8" opacity="0.38"/>
  <line x1="218" y1="300" x2="264" y2="282" stroke="#7a2800" stroke-width="1.8" opacity="0.38"/>
  <line x1="232" y1="278" x2="276" y2="260" stroke="#7a2800" stroke-width="1.8" opacity="0.38"/>

  <!-- Tuercas de anclaje base torso-cilindro (sobre la elipse base) -->
  <circle cx="128" cy="358" r="4.5" fill="#b0b0b0" stroke="#777" stroke-width="1"/>
  <circle cx="128" cy="358" r="2" fill="#444"/>
  <circle cx="178" cy="352" r="4.5" fill="#b0b0b0" stroke="#777" stroke-width="1"/>
  <circle cx="178" cy="352" r="2" fill="#444"/>
  <circle cx="228" cy="358" r="4.5" fill="#b0b0b0" stroke="#777" stroke-width="1"/>
  <circle cx="228" cy="358" r="2" fill="#444"/>

  <!-- === CABLES / MANGUERAS SOBRE la superficie diagonal del torso === -->
  <!-- Las mangueras pasan POR ENCIMA del torso diagonal, -->
  <!-- siguiendo la pendiente naranja desde la base hasta el hombro -->
  
  <!-- Manguera 1 — la más gruesa, pasa por encima de la superficie -->
  <path d="M 175,360 C 190,348 210,326 230,306
           C 248,288 262,268 278,248
           C 290,234 298,224 308,218"
        stroke="#0e0e0e" stroke-width="10" fill="none" stroke-linecap="round"/>
  <!-- Manguera 2 — mediana, paralela -->
  <path d="M 168,358 C 184,346 204,324 224,304
           C 242,286 256,266 272,246
           C 284,232 292,222 302,216"
        stroke="#1a1a1a" stroke-width="6.5" fill="none" stroke-linecap="round"/>
  <!-- Cable 3 — fino/eléctrico -->
  <path d="M 162,355 C 178,344 198,322 218,302
           C 236,284 250,264 266,244
           C 278,230 286,220 296,214"
        stroke="#2a2a2a" stroke-width="3.5" fill="none" stroke-linecap="round"/>

  <!-- Abrazaderas metálicas (clamps encima del torso sujetando cables) -->
  <rect x="200" y="322" width="24" height="8" rx="2" fill="#666" transform="rotate(-42, 212, 326)"/>
  <rect x="232" y="290" width="24" height="8" rx="2" fill="#666" transform="rotate(-42, 244, 294)"/>
  <rect x="260" y="260" width="24" height="8" rx="2" fill="#666" transform="rotate(-42, 272, 264)"/>

  <!-- === OREJA / HUB DEL HOMBRO === -->
  <g filter="url(#sh)">
    <!-- Protuberancia naranja orgánica que sale del torso -->
    <path d="M 280,210 C 312,213 340,228 340,252
             C 340,278 312,298 286,302 Z" fill="#b03600"/>
    <path d="M 283,215 C 310,217 332,230 332,250
             C 332,272 310,288 286,294 Z" fill="#c44000"/>
    <!-- Disco gris gigante del eje del hombro -->
    <circle cx="308" cy="250" r="28" fill="#3c3c3c" stroke="#555" stroke-width="2"/>
    <circle cx="308" cy="250" r="20" fill="#2a2a2a"/>
    <circle cx="308" cy="250" r="9" fill="#1a1a1a" stroke="#444" stroke-width="1.5"/>
    <!-- Tornillos perimetrales -->
    <circle cx="286" cy="230" r="3.5" fill="#b0b0b0" stroke="#777" stroke-width="1"/>
    <circle cx="330" cy="230" r="3.5" fill="#b0b0b0" stroke="#777" stroke-width="1"/>
    <circle cx="286" cy="270" r="3.5" fill="#b0b0b0" stroke="#777" stroke-width="1"/>
    <circle cx="330" cy="270" r="3.5" fill="#b0b0b0" stroke="#777" stroke-width="1"/>
    <circle cx="280" cy="250" r="3.5" fill="#b0b0b0" stroke="#777" stroke-width="1"/>
    <circle cx="336" cy="250" r="3.5" fill="#b0b0b0" stroke="#777" stroke-width="1"/>
  </g>

  <!-- ══════════════════════════════════════════════
       CAPA 4 — 3 MOTORES NEMA (50×40 cada uno)
       Detrás del codo, izquierda
       nema1(64,81) nema2(64,126) nema3(64,171)
       ══════════════════════════════════════════════ -->
  <!-- Placa conectora posterior -->
  <rect x="108" y="74" width="14" height="136" rx="4" fill="#101010" filter="url(#shS)"/>
  <line x1="115" y1="80" x2="115" y2="204" stroke="#202020" stroke-width="1.2" opacity="0.7"/>

  <!-- NEMA 1 — centro(64,81) → rect desde (39,61) w=50 h=40 -->
  <g filter="url(#shS)">
    <rect x="39" y="61" width="50" height="40" rx="3" fill="url(#nemaG)"/>
    <rect x="45" y="67" width="38" height="28" rx="2" fill="#0c0c0c"/>
    <circle cx="64" cy="81" r="11"  fill="#070707" stroke="#1c1c1c" stroke-width="1.8"/>
    <circle cx="64" cy="81" r="4.8" fill="#101010" stroke="#242424" stroke-width="1"/>
    <circle cx="42" cy="64" r="2.5" fill="#1a1a1a"/>
    <circle cx="86" cy="64" r="2.5" fill="#1a1a1a"/>
    <circle cx="42" cy="98" r="2.5" fill="#1a1a1a"/>
    <circle cx="86" cy="98" r="2.5" fill="#1a1a1a"/>
  </g>
  <!-- NEMA 2 — centro(64,126) -->
  <g filter="url(#shS)">
    <rect x="39" y="106" width="50" height="40" rx="3" fill="url(#nemaG)"/>
    <rect x="45" y="112" width="38" height="28" rx="2" fill="#0c0c0c"/>
    <circle cx="64" cy="126" r="11"  fill="#070707" stroke="#1c1c1c" stroke-width="1.8"/>
    <circle cx="64" cy="126" r="4.8" fill="#101010" stroke="#242424" stroke-width="1"/>
    <circle cx="42" cy="109" r="2.5" fill="#1a1a1a"/>
    <circle cx="86" cy="109" r="2.5" fill="#1a1a1a"/>
    <circle cx="42" cy="143" r="2.5" fill="#1a1a1a"/>
    <circle cx="86" cy="143" r="2.5" fill="#1a1a1a"/>
  </g>
  <!-- NEMA 3 — centro(64,171) -->
  <g filter="url(#shS)">
    <rect x="39" y="151" width="50" height="40" rx="3" fill="url(#nemaG)"/>
    <rect x="45" y="157" width="38" height="28" rx="2" fill="#0c0c0c"/>
    <circle cx="64" cy="171" r="11"  fill="#070707" stroke="#1c1c1c" stroke-width="1.8"/>
    <circle cx="64" cy="171" r="4.8" fill="#101010" stroke="#242424" stroke-width="1"/>
    <circle cx="42" cy="154" r="2.5" fill="#1a1a1a"/>
    <circle cx="86" cy="154" r="2.5" fill="#1a1a1a"/>
    <circle cx="42" cy="188" r="2.5" fill="#1a1a1a"/>
    <circle cx="86" cy="188" r="2.5" fill="#1a1a1a"/>
  </g>

  <!-- ══════════════════════════════════════════════
       CAPA 5a — ESLABÓN 1
       hombro(268,247) → codo(119,93)
       Vértices: A(287,229) B(249,265) → C(105,107) D(133,79)
       grosor: 52px (hw=26)
       ══════════════════════════════════════════════ -->
  <!-- Sombra -->
  <polygon points="289,232 251,268 107,110 135,82" fill="#782400" opacity="0.53"/>
  <!-- Cuerpo eslabón 1 -->
  <polygon points="287,229 249,265 105,107 133,79"  fill="url(#ogV)" filter="url(#sh)"/>
  <!-- Highlight borde derecho iluminado -->
  <polygon points="287,229 300,224 146,72 133,79"   fill="#ff7010" opacity="0.14"/>
  <!-- Sombra borde izquierdo oscuro -->
  <polygon points="249,265 260,260 106,110 105,107" fill="#903000" opacity="0.25"/>
  <!-- Nervaduras transversales (5) -->
  <line x1="272" y1="216" x2="241" y2="254" stroke="#a83000" stroke-width="1.4" opacity="0.5"/>
  <line x1="252" y1="191" x2="221" y2="229" stroke="#a83000" stroke-width="1.4" opacity="0.5"/>
  <line x1="232" y1="166" x2="201" y2="204" stroke="#a83000" stroke-width="1.4" opacity="0.5"/>
  <line x1="212" y1="141" x2="181" y2="179" stroke="#a83000" stroke-width="1.4" opacity="0.5"/>
  <line x1="192" y1="116" x2="161" y2="154" stroke="#a83000" stroke-width="1.4" opacity="0.5"/>

  <!-- ══════════════════════════════════════════════
       CAPA 5b — CABLES sobre eslabón 1
       ══════════════════════════════════════════════ -->
  <path d="M 273 243 C 242 204 204 161 122 100"
        stroke="#0b0b0b" stroke-width="6"   fill="none" stroke-linecap="round"/>
  <path d="M 278 241 C 247 202 209 159 127 98"
        stroke="#151515" stroke-width="3.8" fill="none" stroke-linecap="round"/>
  <path d="M 283 239 C 252 200 214 157 132 96"
        stroke="#1d1d1d" stroke-width="2.4" fill="none" stroke-linecap="round"/>
  <!-- Abrazaderas -->
  <rect x="256" y="221" width="24" height="7" rx="3.5" fill="#090909" transform="rotate(47,268,224)"/>
  <rect x="228" y="186" width="24" height="7" rx="3.5" fill="#090909" transform="rotate(47,240,189)"/>
  <rect x="200" y="151" width="24" height="7" rx="3.5" fill="#090909" transform="rotate(47,212,154)"/>

  <!-- ══════════════════════════════════════════════
       CAPA 6 — ARTICULACIÓN CODO
       codo(119,93)  r=28
       ══════════════════════════════════════════════ -->
  <circle cx="121" cy="96"  r="29" fill="#782400" opacity="0.44"/>
  <circle cx="119" cy="93"  r="29" fill="url(#ogH)" filter="url(#sh)"/>
  <!-- Anillo intermedio -->
  <circle cx="119" cy="93"  r="18" fill="#d04000"/>
  <!-- Centro -->
  <circle cx="119" cy="93"  r="8"  fill="#a83000"/>
  <!-- Tornillos (4) -->
  <circle cx="98"  cy="83"  r="3"   fill="#862c00" stroke="#ff5400" stroke-width="0.9"/>
  <circle cx="140" cy="83"  r="3"   fill="#862c00" stroke="#ff5400" stroke-width="0.9"/>
  <circle cx="98"  cy="103" r="3"   fill="#862c00" stroke="#ff5400" stroke-width="0.9"/>
  <circle cx="140" cy="103" r="3"   fill="#862c00" stroke="#ff5400" stroke-width="0.9"/>

  <!-- ══════════════════════════════════════════════
       CAPA 7 — ESLABÓN 2 ANTEBRAZO
       codo(119,93) → mun_ini(339,60)
       Vértices: A(122,112) B(116,74) → C(337,46) D(341,74)
       Forma orgánica en unión con codo
       ══════════════════════════════════════════════ -->
  <!-- Sombra -->
  <path d="M 107,115 C 100,109 97,83 106,78 C 112,70 122,67 150,62
           L 340,29 L 344,72 L 152,91 C 124,96 115,122 107,115 Z"
        fill="#782400" opacity="0.48"/>
  <!-- Cuerpo orgánico eslabón 2 -->
  <path d="M 105,113 C 98,107 95,81 104,76 C 110,68 120,65 148,60
           L 338,27 L 342,70 L 150,89 C 122,94 113,120 105,113 Z"
        fill="url(#ogDL)" filter="url(#sh)"/>
  <!-- Highlight borde superior -->
  <path d="M 105,113 C 98,107 104,76 148,60 L 153,68 C 111,84 106,109 108,114 Z"
        fill="#ff7010" opacity="0.13"/>
  <!-- Sombra borde inferior -->
  <path d="M 105,113 C 113,120 150,89 338,70 L 342,70 L 338,27 L 148,60 C 122,94 113,120 105,113 Z"
        fill="#903000" opacity="0.10"/>
  <!-- Nervaduras -->
  <line x1="186" y1="72" x2="186" y2="88" stroke="#a83000" stroke-width="1.3" opacity="0.45"/>
  <line x1="236" y1="63" x2="236" y2="79" stroke="#a83000" stroke-width="1.3" opacity="0.45"/>
  <line x1="286" y1="55" x2="286" y2="71" stroke="#a83000" stroke-width="1.3" opacity="0.45"/>
  <!-- Cables eslabón 2 -->
  <path d="M 125 93 Q 228 72 330 57"
        stroke="#0b0b0b" stroke-width="4.8" fill="none" stroke-linecap="round"/>
  <path d="M 129 91 Q 232 70 334 55"
        stroke="#171717" stroke-width="3"   fill="none" stroke-linecap="round"/>
  <rect x="220" y="69" width="18" height="6" rx="3" fill="#090909" transform="rotate(-9,229,72)"/>

  <!-- ══════════════════════════════════════════════
       CAPA 8 — MUÑECA GRIS
       mun_ini(339,60) → mun_fin(496,31)
       longitud≈160px, h=34
       ══════════════════════════════════════════════ -->
  <!-- Conector naranja→gris -->
  <rect x="325" y="48" width="30" height="24" rx="7" fill="url(#ogH)" filter="url(#shS)"/>
  <!-- Cuerpo muñeca principal -->
  <rect x="340" y="42" width="138" height="32" rx="9" fill="url(#wG1)" filter="url(#sh)"/>
  <rect x="349" y="47" width="122" height="22" rx="6" fill="#a6a6a6"/>
  <!-- Articulación central muñeca -->
  <circle cx="406" cy="58" r="13"  fill="#8c8c8c" stroke="#686868" stroke-width="1.8"/>
  <circle cx="406" cy="58" r="8"   fill="#7e7e7e" stroke="#585858" stroke-width="1.2"/>
  <circle cx="406" cy="58" r="3.2" fill="#6c6c6c"/>
  <!-- Tornillos -->
  <circle cx="350" cy="46" r="2.5" fill="#7c7c7c"/>
  <circle cx="472" cy="46" r="2.5" fill="#7c7c7c"/>
  <circle cx="350" cy="66" r="2.5" fill="#7c7c7c"/>
  <circle cx="472" cy="66" r="2.5" fill="#7c7c7c"/>
  <!-- Extensión final flange -->
  <rect x="474" y="45" width="48" height="28" rx="8" fill="url(#wG2)" filter="url(#shS)"/>
  <rect x="480" y="49" width="36" height="20" rx="5" fill="#bababa"/>
  <!-- Punta end-effector -->
  <rect x="510" y="47" width="28" height="24" rx="7" fill="#a6a6a6" filter="url(#shS)"/>
  <circle cx="524" cy="59" r="8"   fill="#949494" stroke="#808080" stroke-width="1.2"/>
  <circle cx="524" cy="59" r="3.2" fill="#828282"/>
  <!-- KUKA label -->
  <text x="356" y="62" font-family="Arial" font-size="7" font-weight="bold"
        fill="#525252" letter-spacing="1.6">KUKA</text>

  <!-- ══════════════════════════════════════════════
       CAPA 9 — ARTICULACIÓN HOMBRO
       hombro(268,247)  r=38
       ══════════════════════════════════════════════ -->
  <circle cx="270" cy="250" r="39" fill="#782400" opacity="0.42"/>
  <circle cx="268" cy="247" r="39" fill="url(#ogH)" filter="url(#sh)"/>
  <!-- Anillo intermedio -->
  <circle cx="268" cy="247" r="24" fill="#d04000"/>
  <!-- Centro -->
  <circle cx="268" cy="247" r="10" fill="#a83000"/>
  <!-- Tornillos (4) -->
  <circle cx="244" cy="236" r="3.2" fill="#862c00" stroke="#ff5400" stroke-width="0.9"/>
  <circle cx="292" cy="236" r="3.2" fill="#862c00" stroke="#ff5400" stroke-width="0.9"/>
  <circle cx="244" cy="258" r="3.2" fill="#862c00" stroke="#ff5400" stroke-width="0.9"/>
  <circle cx="292" cy="258" r="3.2" fill="#862c00" stroke="#ff5400" stroke-width="0.9"/>

  <!-- ══════════════════════════════════════════════
       CAPA 10 — PASACABLES HOMBRO (TOP)
       r=22 sobre articulación hombro
       ══════════════════════════════════════════════ -->
  <circle cx="268" cy="243" r="22"  fill="#0c0c0c" stroke="#2a2a2a" stroke-width="2.8" filter="url(#sh)"/>
  <circle cx="268" cy="243" r="14"  fill="#151515" stroke="#2c2c2c" stroke-width="1.5"/>
  <!-- Guías de cable (4 agujeros) -->
  <circle cx="255" cy="234" r="3"   fill="#050505" stroke="#343434" stroke-width="1.1"/>
  <circle cx="281" cy="234" r="3"   fill="#050505" stroke="#343434" stroke-width="1.1"/>
  <circle cx="255" cy="252" r="3"   fill="#050505" stroke="#343434" stroke-width="1.1"/>
  <circle cx="281" cy="252" r="3"   fill="#050505" stroke="#343434" stroke-width="1.1"/>
  <circle cx="268" cy="243" r="6"   fill="#181818" stroke="#2c2c2c" stroke-width="1"/>
  <!-- Cables saliendo hacia eslabón 1 -->
  <path d="M 261 230 C 264 210 268 188 272 166"
        stroke="#090909" stroke-width="5.5" fill="none" stroke-linecap="round"/>
  <path d="M 268 229 C 271 209 274 187 278 165"
        stroke="#151515" stroke-width="3.4" fill="none" stroke-linecap="round"/>
  <path d="M 275 230 C 277 210 280 188 283 166"
        stroke="#1c1c1c" stroke-width="2.2" fill="none" stroke-linecap="round"/>

  <!-- ══════════════════════════════════════════════
       ETIQUETAS IDENTIFICATIVAS DE PARTES
       ══════════════════════════════════════════════ -->
  <g font-family="Arial" font-size="13" font-weight="bold" fill="#00ffcc" 
     paint-order="stroke" stroke="#000000" stroke-width="4">
    <text x="110" y="605">1. BASE (PLATO FIJO/ROTATIVO)</text>
    <text x="30"  y="445">2. CILINDRO NEGRO</text>
    <text x="240" y="350">3. TORSO DIAGONAL</text>
    <text x="315" y="255">4. HOMBRO</text>
    <text x="180" y="175">5. ESLABÓN 1 (BRAZO INFERIOR)</text>
    <text x="10"  y="35">6. MOTORES / CAJAS FLOTANTES</text>
    <text x="105" y="145">7. CODO</text>
    <text x="190" y="32">8. ESLABÓN 2 (BRAZO SUPERIOR)</text>
    <text x="380" y="25">9. MUÑECA</text>
    <text x="485" y="90">10. EFECTOR / PINZA</text>
  </g>

</svg>
